<svg width="20" height="16" viewBox="0 0 20 16" fill="none" xmlns="http://www.w3.org/2000/svg">
<path fill-rule="evenodd" clip-rule="evenodd" d="M1.55429 2.38475C1.71053 1.87258 2.18679 1.5 2.75008 1.5H16.7501C17.3134 1.5 17.7896 1.87258 17.9459 2.38475L9.75008 7.84861L1.55429 2.38475ZM0.000113307 2.73626C-2.57087e-05 2.74427 -3.66906e-05 2.75226 7.97231e-05 2.76026V12.75C7.97231e-05 14.2688 1.2313 15.5 2.75008 15.5H16.7501C18.2689 15.5 19.5001 14.2688 19.5001 12.75V2.76023M18.0001 4.15139V12.75C18.0001 13.4404 17.4404 14 16.7501 14H2.75008C2.05972 14 1.50008 13.4404 1.50008 12.75V4.15139L9.33405 9.37404C9.58598 9.54199 9.91418 9.54199 10.1661 9.37404L18.0001 4.15139ZM19.5 2.73629C19.4927 1.22382 18.2643 0 16.7501 0H2.75008C1.23588 0 0.0075103 1.2238 0.000113307 2.73626" fill="#141718"/>
</svg>
